<svg version="1.1" width="242" height="169" viewBox="-1 -1 242 169" xmlns="http://www.w3.org/2000/svg" xmlns:xlink="http://www.w3.org/1999/xlink">
  <!-- Exported by Scratch - http://scratch.mit.edu/ -->
  <path id="ID0.4771788902580738" fill="#000000" stroke="#000000" stroke-width="2" stroke-linecap="round" d="M 190 226.500 C 189.065 226.830 189.794 227.915 189.750 228.750 C 189.710 229.516 189.426 230.253 189.250 231 C 189.093 231.668 188.869 232.324 188.750 233 C 188.619 233.742 188.530 234.497 188.500 235.250 C 188.447 236.581 188.341 237.927 188.500 239.250 C 188.594 240.034 188.964 240.764 189.250 241.500 C 189.547 242.264 189.620 243.225 190.250 243.750 C 190.766 244.180 191.684 244.360 192.250 244 C 192.850 243.618 192.750 242.666 193 242 C 193.500 240.668 193.972 239.321 194.500 238 C 194.805 237.239 195.222 236.521 195.500 235.750 C 195.973 234.437 196.469 233.117 196.750 231.750 C 197.054 230.273 197.664 228.700 197.250 227.250 C 197.055 226.566 195.949 226.631 195.250 226.500 C 194.595 226.377 193.915 226.458 193.250 226.500 C 192.580 226.542 191.920 226.795 191.250 226.750 C 190.645 226.710 189.815 225.830 189.500 226.250 Z " transform="matrix(1.1363636255264282, 0, 0, 1, -126.5, -85.75)"/>
  <path id="ID0.4771788902580738" fill="#000000" stroke="#000000" stroke-width="2" stroke-linecap="round" d="M 190 226.500 C 189.065 226.830 189.794 227.915 189.750 228.750 C 189.710 229.516 189.426 230.253 189.250 231 C 189.093 231.668 188.869 232.324 188.750 233 C 188.619 233.742 188.530 234.497 188.500 235.250 C 188.447 236.581 188.341 237.927 188.500 239.250 C 188.594 240.034 188.964 240.764 189.250 241.500 C 189.547 242.264 189.620 243.225 190.250 243.750 C 190.766 244.180 191.684 244.360 192.250 244 C 192.850 243.618 192.750 242.666 193 242 C 193.500 240.668 193.972 239.321 194.500 238 C 194.805 237.239 195.222 236.521 195.500 235.750 C 195.973 234.437 196.469 233.117 196.750 231.750 C 197.054 230.273 197.664 228.700 197.250 227.250 C 197.055 226.566 195.949 226.631 195.250 226.500 C 194.595 226.377 193.915 226.458 193.250 226.500 C 192.580 226.542 191.920 226.795 191.250 226.750 C 190.645 226.710 189.815 225.830 189.500 226.250 Z " transform="matrix(1.313636302947998, 0, 0, 1, -145.55, -77.65)"/>
  <path id="ID0.4771788902580738" fill="#000000" stroke="#000000" stroke-width="2" stroke-linecap="round" d="M 190 226.500 C 189.065 226.830 189.794 227.915 189.750 228.750 C 189.710 229.516 189.426 230.253 189.250 231 C 189.093 231.668 188.869 232.324 188.750 233 C 188.619 233.742 188.530 234.497 188.500 235.250 C 188.447 236.581 188.341 237.927 188.500 239.250 C 188.594 240.034 188.964 240.764 189.250 241.500 C 189.547 242.264 189.620 243.225 190.250 243.750 C 190.766 244.180 191.684 244.360 192.250 244 C 192.850 243.618 192.750 242.666 193 242 C 193.500 240.668 193.972 239.321 194.500 238 C 194.805 237.239 195.222 236.521 195.500 235.750 C 195.973 234.437 196.469 233.117 196.750 231.750 C 197.054 230.273 197.664 228.700 197.250 227.250 C 197.055 226.566 195.949 226.631 195.250 226.500 C 194.595 226.377 193.915 226.458 193.250 226.500 C 192.580 226.542 191.920 226.795 191.250 226.750 C 190.645 226.710 189.815 225.830 189.500 226.250 Z " transform="matrix(-1.1363636255264282, 0, 0, 1, 374.3, -84.75)"/>
  <path id="ID0.4771788902580738" fill="#000000" stroke="#000000" stroke-width="2" stroke-linecap="round" d="M 190 226.500 C 189.065 226.830 189.794 227.915 189.750 228.750 C 189.710 229.516 189.426 230.253 189.250 231 C 189.093 231.668 188.869 232.324 188.750 233 C 188.619 233.742 188.530 234.497 188.500 235.250 C 188.447 236.581 188.341 237.927 188.500 239.250 C 188.594 240.034 188.964 240.764 189.250 241.500 C 189.547 242.264 189.620 243.225 190.250 243.750 C 190.766 244.180 191.684 244.360 192.250 244 C 192.850 243.618 192.750 242.666 193 242 C 193.500 240.668 193.972 239.321 194.500 238 C 194.805 237.239 195.222 236.521 195.500 235.750 C 195.973 234.437 196.469 233.117 196.750 231.750 C 197.054 230.273 197.664 228.700 197.250 227.250 C 197.055 226.566 195.949 226.631 195.250 226.500 C 194.595 226.377 193.915 226.458 193.250 226.500 C 192.580 226.542 191.920 226.795 191.250 226.750 C 190.645 226.710 189.815 225.830 189.500 226.250 Z " transform="matrix(-1.313636302947998, 0, 0, 1, 391.8, -77.5)"/>
  <path id="ID0.020184503868222237" fill="#000000" stroke="none" stroke-linecap="round" d="M 323.500 125.750 C 324.671 123.429 329.054 123.422 330.750 125.150 C 333.055 127.492 332.541 131.486 332.650 134.650 C 332.642 139.349 332.886 144.315 331.050 148.500 C 328.761 153.714 325.182 158.680 320.550 162 C 311.932 168.221 302.727 175.073 292.250 176.750 C 289.171 177.243 288.665 169.820 290.750 167.500 C 294.841 162.959 301.915 163.353 306.750 160 C 311.786 156.507 317.175 153.112 319.750 147.750 C 322.935 141.119 320.166 132.390 323.500 125.750 Z " transform="matrix(1.5657762289047241, 0, 0, 1.3698501586914063, -299.85, -123.9)"/>
  <path id="ID0.020184503868222237" fill="#000000" stroke="none" stroke-linecap="round" d="M 323.500 125.750 C 325.324 122.778 331.425 122.386 333.500 125 C 336.278 128.486 333.342 133.984 333 138.450 C 332.822 140.884 332.251 143.414 331.400 145.750 C 330.319 148.706 328.739 151.741 326.600 154.150 C 322.912 158.300 318.527 162.599 313.550 165.500 C 305.886 169.966 297.307 174.848 288.300 176.050 C 285.896 176.366 286.350 170.801 288 169.500 C 293.293 164.761 301.114 163.798 306.750 160 C 311.688 156.674 317.175 153.112 319.750 147.750 C 322.935 141.119 319.617 132.086 323.500 125.750 Z " transform="matrix(-1.5657763481140137, 0, 0, 1.3698501586914063, 546.4, -115.65)"/>
  <path id="ID0.143014844506979" fill="#FF0000" stroke="#000000" stroke-width="2" d="M 225.250 120.500 C 241.183 120.500 255.620 127.069 266.075 137.682 C 276.529 148.295 283 162.951 283 179.125 C 283 195.299 276.529 209.955 266.075 220.568 C 255.620 231.181 241.183 237.750 225.250 237.750 C 209.317 237.750 194.880 231.181 184.425 220.568 C 173.971 209.955 167.500 195.299 167.500 179.125 C 167.500 162.951 173.971 148.295 184.425 137.682 C 194.880 127.069 209.317 120.500 225.250 120.500 Z " transform="matrix(0.8595744371414185, 0, 0, 0.7854589223861694, -69.95, -31.75)"/>
  <path id="ID0.0755883427336812" fill="#FFFF00" stroke="#000000" stroke-width="2" stroke-linecap="round" d="M 331.375 93.500 C 337.962 93.500 343.931 96.343 348.253 100.937 C 352.575 105.530 355.250 111.874 355.250 118.875 C 355.250 125.876 352.575 132.220 348.253 136.813 C 343.931 141.407 337.962 144.250 331.375 144.250 C 324.788 144.250 318.819 141.407 314.497 136.813 C 310.175 132.220 307.500 125.876 307.500 118.875 C 307.500 111.874 310.175 105.530 314.497 100.937 C 318.819 96.343 324.788 93.500 331.375 93.500 Z " transform="matrix(1.215349555015564, 0, 0, 1.163033127784729, -372, -96.15)"/>
  <path id="ID0.0755883427336812" fill="#FFFF00" stroke="#000000" stroke-width="2" d="M 331.375 93.500 C 337.962 93.500 343.931 96.343 348.253 100.937 C 352.575 105.530 355.250 111.874 355.250 118.875 C 355.250 125.876 352.575 132.220 348.253 136.813 C 343.931 141.407 337.962 144.250 331.375 144.250 C 324.788 144.250 318.819 141.407 314.497 136.813 C 310.175 132.220 307.500 125.876 307.500 118.875 C 307.500 111.874 310.175 105.530 314.497 100.937 C 318.819 96.343 324.788 93.500 331.375 93.500 Z " transform="matrix(1.215349555015564, 0, 0, 1.163033127784729, -192.15, -107.55)"/>
  <path id="ID0.832058509811759" fill="#000000" stroke="none" d="M 196.125 173.250 C 197.539 173.250 198.820 173.838 199.748 174.789 C 200.676 175.739 201.250 177.052 201.250 178.500 C 201.250 179.948 200.676 181.261 199.748 182.211 C 198.820 183.162 197.539 183.750 196.125 183.750 C 194.711 183.750 193.430 183.162 192.502 182.211 C 191.574 181.261 191 179.948 191 178.500 C 191 177.052 191.574 175.739 192.502 174.789 C 193.430 173.838 194.711 173.250 196.125 173.250 Z " transform="matrix(1, 0, 0, 1, -101.5, -69.5)"/>
  <path id="ID0.832058509811759" fill="#000000" stroke="none" d="M 196.125 173.250 C 197.539 173.250 198.820 173.838 199.748 174.789 C 200.676 175.739 201.250 177.052 201.250 178.500 C 201.250 179.948 200.676 181.261 199.748 182.211 C 198.820 183.162 197.539 183.750 196.125 183.750 C 194.711 183.750 193.430 183.162 192.502 182.211 C 191.574 181.261 191 179.948 191 178.500 C 191 177.052 191.574 175.739 192.502 174.789 C 193.430 173.838 194.711 173.250 196.125 173.250 Z " transform="matrix(1, 0, 0, 1, -44.6, -69.75)"/>
  <path id="ID0.8241770449094474" fill="none" stroke="#000000" stroke-width="2" stroke-linecap="round" d="M 212.500 192.750 L 218.750 166.250 L 229.750 190.500 " transform="matrix(1, 0, 0, 1.0426230430603027, -99.5, -78.75)"/>
  <path id="ID0.09748970624059439" fill="none" stroke="#000000" stroke-width="2" stroke-linecap="round" d="M 122 126 C 128.656 126.584 135.366 123.535 140.500 119.500 C 144.011 116.740 144.944 109.361 146.250 107 C 146.681 106.002 145.039 110.672 144.250 112.250 C 142.565 115.622 141.683 120.010 138.503 122.007 C 133.614 125.077 127.501 126.276 121.625 126 C 115.616 125.717 110.038 122.939 104.950 119.900 C 101.872 118.279 99.584 115.426 97.750 112.375 C 96.327 110.012 95.034 104.153 95.250 104.500 C 95.267 104.822 95.773 112.850 98.750 115.250 C 105.391 120.601 113.505 125.249 122 126 Z " transform="matrix(0.8073022365570068, 0, 0, 0.8073022365570068, -66.75, -51.8)"/>
  <path id="ID0.09748970624059439" fill="none" stroke="#000000" stroke-width="2" stroke-linecap="round" d="M 122 126 C 128.656 126.584 135.366 123.535 140.500 119.500 C 144.011 116.740 144.944 109.361 146.250 107 C 146.681 106.002 145.039 110.672 144.250 112.250 C 142.565 115.622 141.683 120.010 138.503 122.007 C 133.614 125.077 127.501 126.276 121.625 126 C 115.616 125.717 110.038 122.939 104.950 119.900 C 101.872 118.279 99.584 115.426 97.750 112.375 C 96.327 110.012 95.034 104.153 95.250 104.500 C 95.267 104.822 95.773 112.850 98.750 115.250 C 105.391 120.601 113.505 125.249 122 126 Z " transform="matrix(0.8073022365570068, 0, 0, 0.8073022365570068, 113.5, -65.05)"/>
  <path id="ID0.978737732861191" fill="#FFFF00" stroke="none" d="M 119.500 111 C 122.742 111 125.679 112.065 127.806 113.784 C 129.933 115.504 131.250 117.879 131.250 120.500 C 131.250 123.121 129.933 125.496 127.806 127.216 C 125.679 128.935 122.742 130 119.500 130 C 116.258 130 113.321 128.935 111.194 127.216 C 109.067 125.496 107.750 123.121 107.750 120.500 C 107.750 117.879 109.067 115.504 111.194 113.784 C 113.321 112.065 116.258 111 119.500 111 Z " transform="matrix(1, 0, 0, 1, -88.5, -70.75)"/>
  <path id="ID0.978737732861191" fill="#FFFF00" stroke="none" d="M 119.500 111 C 122.742 111 125.679 112.065 127.806 113.784 C 129.933 115.504 131.250 117.879 131.250 120.500 C 131.250 123.121 129.933 125.496 127.806 127.216 C 125.679 128.935 122.742 130 119.500 130 C 116.258 130 113.321 128.935 111.194 127.216 C 109.067 125.496 107.750 123.121 107.750 120.500 C 107.750 117.879 109.067 115.504 111.194 113.784 C 113.321 112.065 116.258 111 119.500 111 Z " transform="matrix(1, 0, 0, 1, 93.75, -81.25)"/>
  <path id="ID0.876597763504833" fill="none" stroke="#000000" stroke-width="2" stroke-linecap="round" d="M 118 107.750 C 121.053 107.750 124.144 109.036 126.203 111.120 C 128.252 113.195 129.527 119.266 129.500 119.250 C 129.474 119.235 128.287 113.043 126.250 111 C 124.093 108.940 120.922 108.037 118 108 C 115.374 107.968 112.409 109.020 110.500 111 C 108.438 113.081 107.020 119.232 107 119.250 C 106.978 119.269 108.268 113.215 110.297 111.120 C 112.289 109.064 115.187 107.750 118 107.750 Z " transform="matrix(1.0612244606018066, 0, 0, 1, -94.95, -68)"/>
  <path id="ID0.876597763504833" fill="none" stroke="#000000" stroke-width="2" stroke-linecap="round" d="M 118 107.750 C 121.053 107.750 124.144 109.036 126.203 111.120 C 128.252 113.195 129.527 119.266 129.500 119.250 C 129.474 119.235 128.287 113.043 126.250 111 C 124.093 108.940 120.922 108.037 118 108 C 115.374 107.968 112.409 109.020 110.500 111 C 108.438 113.081 107.020 119.232 107 119.250 C 106.978 119.269 108.268 113.215 110.297 111.120 C 112.289 109.064 115.187 107.750 118 107.750 Z " transform="matrix(1.0612244606018066, 0, 0, 1, 88.1, -77.95)"/>
</svg>