<svg version="1.1" width="99" height="103" viewBox="-1 -1 99 103" xmlns="http://www.w3.org/2000/svg" xmlns:xlink="http://www.w3.org/1999/xlink">
  <!-- Exported by Scratch - http://scratch.mit.edu/ -->
  <path id="ID0.8650229373015463" fill="#B2B2B2" stroke="#000000" stroke-width="2" stroke-linecap="round" d="M 228.950 177.900 C 229.665 178.274 230.591 178.281 231.150 179 C 232.408 180.639 232.355 183.255 234 184.500 C 236.338 186.260 239.404 186.975 242.300 187.400 C 245.711 187.898 249.137 188.214 252.400 187.400 C 254.132 186.966 258.389 183.840 256.650 183.650 C 250.427 182.972 243.236 185.351 236.500 185.500 C 234.816 185.537 233.301 184.628 234.300 184 C 238.369 181.909 242.896 180.387 247.400 179.650 C 251.673 178.951 256.404 178.251 260.400 179.900 C 262.163 180.628 263.430 184.004 262 185.400 C 258.097 189.202 252.514 191.579 247.150 192.300 C 242.433 192.949 237.576 191.129 233.300 189.300 C 231.114 188.363 229.127 186.598 228 184.500 C 226.709 182.095 226.149 179.080 226.550 176.650 C 226.623 175.779 228.086 177.440 228.950 177.900 Z " transform="matrix(-2.031872034072876, -0.06862480938434601, 0.10303609818220139, -1.3532812595367432, 530.8, 330.75)"/>
  <path id="ID0.8650229373015463" fill="#B2B2B2" stroke="#000000" stroke-width="2" stroke-linecap="round" d="M 228.950 177.900 C 229.665 178.274 230.591 178.281 231.150 179 C 232.408 180.639 232.355 183.255 234 184.500 C 236.338 186.260 239.404 186.975 242.300 187.400 C 245.711 187.898 249.137 188.214 252.400 187.400 C 254.132 186.966 258.389 183.840 256.650 183.650 C 250.427 182.972 243.236 185.351 236.500 185.500 C 234.816 185.537 233.301 184.628 234.300 184 C 238.369 181.909 242.896 180.387 247.400 179.650 C 251.673 178.951 256.404 178.251 260.400 179.900 C 262.163 180.628 263.430 184.004 262 185.400 C 258.097 189.202 252.514 191.579 247.150 192.300 C 242.433 192.949 237.576 191.129 233.300 189.300 C 231.114 188.363 229.127 186.598 228 184.500 C 226.709 182.095 226.149 179.080 226.550 176.650 C 226.623 175.779 228.086 177.440 228.950 177.900 Z " transform="matrix(-2.031872034072876, -0.06862480938434601, 0.10303609818220139, -1.3532812595367432, 522.5, 313.75)"/>
  <path id="ID0.5608558319509029" fill="#FF9999" stroke="#000000" stroke-width="2" stroke-linecap="round" d="M 230.850 139 C 238.037 139 244.549 141.045 249.265 144.349 C 253.981 147.652 254.741 152.753 256.900 157.250 C 259.219 163.842 258.265 163.409 258.300 166.500 C 258.307 167.274 257.772 167.056 257.150 167.250 C 254.641 168.055 252.270 169.014 249.800 169.500 C 244.469 170.383 239.072 171.047 233.800 171.350 C 229.206 171.614 224.521 171.284 219.900 171 C 214.877 170.691 209.685 170.132 204.500 169.500 C 203.332 169.389 203.063 169.660 202.800 169 C 202.265 167.657 202.619 166.115 202.900 164.650 C 203.377 162.152 203.751 159.552 204.800 157.250 C 206.870 152.708 207.719 147.652 212.435 144.349 C 217.151 141.045 223.663 139 230.850 139 Z " transform="matrix(1.6801462173461914, 0, 0, 1.6801462173461914, -337.75, -231.65)"/>
  <path id="ID0.8650229373015463" fill="#B2B2B2" stroke="#000000" stroke-width="2" stroke-linecap="round" d="M 256.800 169.150 C 257.101 169.367 238.324 172.442 230.900 177.500 C 228.801 178.968 232.117 182.775 234 184.500 C 236.240 186.355 239.404 186.975 242.300 187.400 C 245.711 187.898 249.137 188.214 252.400 187.400 C 254.132 186.966 258.389 183.840 256.650 183.650 C 250.427 182.972 243.236 185.351 236.500 185.500 C 234.816 185.537 233.301 184.628 234.300 184 C 238.369 181.909 242.896 180.387 247.400 179.650 C 251.673 178.951 256.404 178.251 260.400 179.900 C 262.163 180.628 263.430 184.004 262 185.400 C 258.097 189.202 252.514 191.579 247.150 192.300 C 242.433 192.949 237.576 191.129 233.300 189.300 C 231.114 188.363 228.855 186.689 228 184.500 C 226.749 181.291 224.177 175.742 227.146 174.192 C 236.027 169.561 256.609 168.933 256.800 169.150 Z " transform="matrix(-2.028388738632202, -0.1047995388507843, 0.1573503166437149, -1.3509613275527954, 523.8, 354.25)"/>
  <path id="ID0.2565558613277972" fill="#000000" stroke="none" d="M 223.400 151.650 C 224.062 151.650 224.662 151.950 225.097 152.434 C 225.531 152.918 225.800 153.587 225.800 154.325 C 225.800 155.063 225.531 155.732 225.097 156.216 C 224.662 156.700 224.062 157 223.400 157 C 222.738 157 222.138 156.700 221.703 156.216 C 221.269 155.732 221 155.063 221 154.325 C 221 153.587 221.269 152.918 221.703 152.434 C 222.138 151.950 222.738 151.650 223.400 151.650 Z " transform="matrix(2.034482717514038, 0, 0, 2.034482717514038, -433.6, -281.8)"/>
  <path id="ID0.2565558613277972" fill="#000000" stroke="none" d="M 223.400 151.650 C 224.062 151.650 224.662 151.950 225.097 152.434 C 225.531 152.918 225.800 153.587 225.800 154.325 C 225.800 155.063 225.531 155.732 225.097 156.216 C 224.662 156.700 224.062 157 223.400 157 C 222.738 157 222.138 156.700 221.703 156.216 C 221.269 155.732 221 155.063 221 154.325 C 221 153.587 221.269 152.918 221.703 152.434 C 222.138 151.950 222.738 151.650 223.400 151.650 Z " transform="matrix(2.034482717514038, 0, 0, 2.034482717514038, -375, -282.6)"/>
  <path id="ID0.48618848994374275" fill="none" stroke="#000000" stroke-width="2" stroke-linecap="round" d="M 232.800 148.500 C 232.800 148.500 232.470 149.925 232.400 150.650 C 232.336 151.313 232.254 152.000 232.400 152.650 C 232.560 153.363 232.765 154.152 233.300 154.650 C 233.816 155.131 234.596 155.403 235.300 155.350 C 236.043 155.294 236.760 154.863 237.300 154.350 C 237.808 153.868 238.177 153.189 238.300 152.500 C 238.520 151.271 238.300 148.750 238.300 148.750 " transform="matrix(2.511707067489624, 0, 0, 2.511707067489624, -542.95, -350.15)"/>
</svg>